<?xml version="1.0" encoding="UTF-8"?>
<svg width="32" height="32" viewBox="0 0 100 100" fill="none" xmlns="http://www.w3.org/2000/svg">
  <circle cx="50" cy="50" r="45" fill="#2563EB"/>
  <path d="M75 35L60 50L70 55L25 75L40 55L30 50L45 30L75 35Z" fill="#FDE047" filter="drop-shadow(0 0 1px rgba(253,224,71,0.5))"/>
  <path d="M35 25h25c8.284 0 15 6.716 15 15 0 5.304-2.748 9.954-6.891 12.615C72.252 55.276 75 59.926 75 65.24c0 8.284-6.716 15-15 15H35V25z" fill="white" filter="drop-shadow(1px 1px 1px rgba(0,0,0,0.2))"/>
  <path d="M40 30v20h20c5.523 0 10-4.477 10-10s-4.477-10-10-10H40z" fill="#3B82F6"/>
  <path d="M40 55v20h20c5.523 0 10-4.477 10-10s-4.477-10-10-10H40z" fill="#3B82F6"/>
</svg>