<svg xmlns="http://www.w3.org/2000/svg" viewBox="0 24.950000762939453 106.25 35.39999771118164" data-asc="1.2"><g fill="#000000"><g fill="#000000" transform="translate(0, 0)"><path d="M13.40 60.20Q11.40 60.20 9.75 59.33Q8.10 58.45 7.05 56.75Q7 57.70 6.35 58.50Q5.70 59.30 3.90 59.30Q1.90 59.30 0.95 58.20Q0 57.10 0 55.30Q0 54.20 0.30 52.13Q0.60 50.05 1.02 47.45Q1.45 44.85 1.88 42.05Q2.30 39.25 2.60 36.60Q2.90 33.95 2.90 31.85Q2.90 30.45 2.75 29.40Q2.60 28.35 2.20 27.75L2.20 27.45Q3.35 26.20 4.60 25.57Q5.85 24.95 7 24.95Q8.70 24.95 9.90 26.30Q11.10 27.65 11.10 30.60Q11.10 32.05 10.80 34.67Q10.50 37.30 10.05 39.90Q11.85 37.35 13.88 36Q15.90 34.65 17.80 34.65Q20.35 34.65 22.15 37.08Q23.95 39.50 23.95 44.40Q23.95 47.30 23.28 50.13Q22.60 52.95 21.25 55.23Q19.90 57.50 17.93 58.85Q15.95 60.20 13.40 60.20M10.90 55.15Q12.50 55.15 13.63 53.75Q14.75 52.35 15.32 50.17Q15.90 48 15.90 45.70Q15.90 44.20 15.65 42.83Q15.40 41.45 14.90 40.58Q14.40 39.70 13.60 39.70Q12.20 39.70 10.43 42.97Q8.65 46.25 7.65 52.25Q8.55 55.15 10.90 55.15ZM44.90 60.25Q43.15 60.25 41.85 59.10Q40.55 57.95 40.55 55.35Q40.55 55.10 40.55 54.85Q40.55 54.60 40.60 54.35Q39.10 57.35 37.23 58.77Q35.35 60.20 33.45 60.20Q31.70 60.20 30.15 58.98Q28.60 57.75 27.65 55.35Q26.70 52.95 26.70 49.55Q26.70 46.05 27.68 43.30Q28.65 40.55 30.25 38.65Q31.85 36.75 33.75 35.77Q35.65 34.80 37.45 34.80Q39.45 34.80 41.05 36.02Q42.65 37.25 43.25 39.90Q43.40 39.05 43.48 38.35Q43.55 37.65 43.55 37.40Q43.60 36.05 44.93 35.40Q46.25 34.75 47.85 34.75Q49.25 34.75 50.50 35.30Q51.75 35.85 52.20 37.15L52.30 37.45Q51.70 38.80 51.10 40.70Q50.50 42.60 50 44.67Q49.50 46.75 49.20 48.73Q48.90 50.70 48.90 52.20Q48.90 53.85 49.25 54.48Q49.60 55.10 50.10 55.10Q50.95 55.10 51.65 53.90L52.05 54.10Q52.05 55.80 50.95 57.20Q49.85 58.60 48.20 59.42Q46.55 60.25 44.90 60.25M36.75 53.90Q38.05 53.90 39.63 51.58Q41.20 49.25 42.35 44.90Q42.45 44.45 42.55 44.02Q42.65 43.60 42.70 43.20Q41.90 41.35 41.03 40.58Q40.15 39.80 39.30 39.80Q38.05 39.80 36.98 41.13Q35.90 42.45 35.23 44.45Q34.55 46.45 34.55 48.45Q34.55 51.20 35.18 52.55Q35.80 53.90 36.75 53.90ZM73.40 60.25Q71.75 60.25 70.30 59.48Q68.85 58.70 67.95 57.20Q67.05 55.70 67.05 53.60Q67.05 51.45 68.10 48.75Q68.90 48.35 70 47.50Q71.10 46.65 71.95 45.58Q72.80 44.50 72.80 43.45Q72.80 42.50 72.08 41.95Q71.35 41.40 70.30 41.40Q69 41.40 67.85 42.20Q66.70 43 65.83 44.27Q64.95 45.55 64.48 47.02Q64 48.50 64 49.85Q64 51.15 64.33 52.27Q64.65 53.40 64.65 54.85Q64.65 57.10 63.45 58.65Q62.25 60.20 59.90 60.20Q57.75 60.20 56.45 58.75Q55.15 57.30 55.15 54.80Q55.15 53.50 55.48 51.35Q55.80 49.20 56.30 46.60Q56.80 44 57.28 41.22Q57.75 38.45 58.08 35.88Q58.40 33.30 58.40 31.25Q58.40 30.15 58.28 29.22Q58.15 28.30 57.75 27.75L57.75 27.45Q58.85 26.20 60.15 25.60Q61.45 25 62.70 25Q64.60 25 65.95 26.35Q67.30 27.70 67.30 30.35Q67.30 31.75 66.93 33.75Q66.55 35.75 66.03 37.95Q65.50 40.15 64.95 42.15Q66.05 40.55 67.45 38.85Q68.85 37.15 70.60 35.97Q72.35 34.80 74.55 34.80Q77.10 34.80 78.55 36.42Q80 38.05 80 40.30Q80 42.55 78.38 45.10Q76.75 47.65 72.95 49.40Q73.60 50.85 74.75 52Q75.90 53.15 77.28 53.77Q78.65 54.40 79.85 54.40Q80.45 54.40 80.90 54.20L81.20 54.50Q79.95 57.40 77.78 58.83Q75.60 60.25 73.40 60.25ZM93.45 60.35Q89.80 60.35 87.40 58.88Q85 57.40 83.80 54.98Q82.60 52.55 82.60 49.75Q82.60 47.10 83.63 44.42Q84.65 41.75 86.63 39.55Q88.60 37.35 91.43 36Q94.25 34.65 97.80 34.65Q102.20 34.65 104.23 36.63Q106.25 38.60 106.25 41.40Q106.25 43.80 104.98 45.83Q103.70 47.85 101.60 49.08Q99.50 50.30 97 50.30Q95.70 50.30 94.35 49.90Q93 49.50 91.70 48.65Q91.95 51.75 93.50 53.15Q95.05 54.55 97.20 54.55Q98.70 54.55 100.20 53.98Q101.70 53.40 102.98 52.48Q104.25 51.55 104.95 50.50L105.30 50.75Q105.30 53.35 104.23 55.17Q103.15 57 101.40 58.15Q99.65 59.30 97.58 59.83Q95.50 60.35 93.45 60.35M94.60 46.85Q96.20 46.85 97.20 45.92Q98.20 45 98.70 43.75Q99.20 42.50 99.20 41.55Q99.20 40.40 98.55 39.63Q97.90 38.85 96.75 38.85Q95.85 38.85 94.78 39.50Q93.70 40.15 92.85 41.72Q92 43.30 91.75 46.10Q93.35 46.85 94.60 46.85Z"/></g></g></svg>