<svg id="visual" viewBox="0 0 900 450" width="900" height="450" xmlns="http://www.w3.org/2000/svg" xmlns:xlink="http://www.w3.org/1999/xlink" version="1.1"><path d="M0 129L21.5 121.7C43 114.3 86 99.7 128.8 92C171.7 84.3 214.3 83.7 257.2 90.7C300 97.7 343 112.3 385.8 116.8C428.7 121.3 471.3 115.7 514.2 118.5C557 121.3 600 132.7 642.8 130.8C685.7 129 728.3 114 771.2 108.8C814 103.7 857 108.3 878.5 110.7L900 113L900 0L878.5 0C857 0 814 0 771.2 0C728.3 0 685.7 0 642.8 0C600 0 557 0 514.2 0C471.3 0 428.7 0 385.8 0C343 0 300 0 257.2 0C214.3 0 171.7 0 128.8 0C86 0 43 0 21.5 0L0 0Z" fill="#007A8E" stroke-linecap="round" stroke-linejoin="miter"></path></svg>