<svg id="visual" viewBox="0 0 900 600" width="900" height="600" xmlns="http://www.w3.org/2000/svg" xmlns:xlink="http://www.w3.org/1999/xlink" version="1.1"><rect x="0" y="0" width="900" height="600" fill="#002233"></rect><path d="M0 391L21.5 407.7C43 424.3 86 457.7 128.8 473.2C171.7 488.7 214.3 486.3 257.2 476.7C300 467 343 450 385.8 442C428.7 434 471.3 435 514.2 447.5C557 460 600 484 642.8 475.2C685.7 466.3 728.3 424.7 771.2 405.7C814 386.7 857 390.3 878.5 392.2L900 394L900 601L878.5 601C857 601 814 601 771.2 601C728.3 601 685.7 601 642.8 601C600 601 557 601 514.2 601C471.3 601 428.7 601 385.8 601C343 601 300 601 257.2 601C214.3 601 171.7 601 128.8 601C86 601 43 601 21.5 601L0 601Z" fill="#000" stroke-linecap="round" stroke-linejoin="miter"></path></svg>