<svg id="visual" viewBox="0 0 900 600" width="900" height="600" xmlns="http://www.w3.org/2000/svg" xmlns:xlink="http://www.w3.org/1999/xlink" version="1.1"><path d="M0 82L21.5 75.3C43 68.7 86 55.3 128.8 49.2C171.7 43 214.3 44 257.2 47.8C300 51.7 343 58.3 385.8 61.5C428.7 64.7 471.3 64.3 514.2 59.3C557 54.3 600 44.7 642.8 48.2C685.7 51.7 728.3 68.3 771.2 76C814 83.7 857 82.3 878.5 81.7L900 81L900 0L878.5 0C857 0 814 0 771.2 0C728.3 0 685.7 0 642.8 0C600 0 557 0 514.2 0C471.3 0 428.7 0 385.8 0C343 0 300 0 257.2 0C214.3 0 171.7 0 128.8 0C86 0 43 0 21.5 0L0 0Z" fill="#000" stroke-linecap="round" stroke-linejoin="miter"></path></svg>